%TF.GenerationSoftware,KiCad,Pcbnew,9.0.1*%
%TF.CreationDate,2025-04-20T22:13:02+08:00*%
%TF.ProjectId,PCB,5043422e-6b69-4636-9164-5f7063625858,rev?*%
%TF.SameCoordinates,Original*%
%TF.FileFunction,Copper,L1,Top*%
%TF.FilePolarity,Positive*%
%FSLAX46Y46*%
G04 Gerber Fmt 4.6, Leading zero omitted, Abs format (unit mm)*
G04 Created by KiCad (PCBNEW 9.0.1) date 2025-04-20 22:13:02*
%MOMM*%
%LPD*%
G01*
G04 APERTURE LIST*
G04 Aperture macros list*
%AMRoundRect*
0 Rectangle with rounded corners*
0 $1 Rounding radius*
0 $2 $3 $4 $5 $6 $7 $8 $9 X,Y pos of 4 corners*
0 Add a 4 corners polygon primitive as box body*
4,1,4,$2,$3,$4,$5,$6,$7,$8,$9,$2,$3,0*
0 Add four circle primitives for the rounded corners*
1,1,$1+$1,$2,$3*
1,1,$1+$1,$4,$5*
1,1,$1+$1,$6,$7*
1,1,$1+$1,$8,$9*
0 Add four rect primitives between the rounded corners*
20,1,$1+$1,$2,$3,$4,$5,0*
20,1,$1+$1,$4,$5,$6,$7,0*
20,1,$1+$1,$6,$7,$8,$9,0*
20,1,$1+$1,$8,$9,$2,$3,0*%
%AMOutline5P*
0 Free polygon, 5 corners , with rotation*
0 The origin of the aperture is its center*
0 number of corners: always 5*
0 $1 to $10 corner X, Y*
0 $11 Rotation angle, in degrees counterclockwise*
0 create outline with 5 corners*
4,1,5,$1,$2,$3,$4,$5,$6,$7,$8,$9,$10,$1,$2,$11*%
%AMOutline6P*
0 Free polygon, 6 corners , with rotation*
0 The origin of the aperture is its center*
0 number of corners: always 6*
0 $1 to $12 corner X, Y*
0 $13 Rotation angle, in degrees counterclockwise*
0 create outline with 6 corners*
4,1,6,$1,$2,$3,$4,$5,$6,$7,$8,$9,$10,$11,$12,$1,$2,$13*%
%AMOutline7P*
0 Free polygon, 7 corners , with rotation*
0 The origin of the aperture is its center*
0 number of corners: always 7*
0 $1 to $14 corner X, Y*
0 $15 Rotation angle, in degrees counterclockwise*
0 create outline with 7 corners*
4,1,7,$1,$2,$3,$4,$5,$6,$7,$8,$9,$10,$11,$12,$13,$14,$1,$2,$15*%
%AMOutline8P*
0 Free polygon, 8 corners , with rotation*
0 The origin of the aperture is its center*
0 number of corners: always 8*
0 $1 to $16 corner X, Y*
0 $17 Rotation angle, in degrees counterclockwise*
0 create outline with 8 corners*
4,1,8,$1,$2,$3,$4,$5,$6,$7,$8,$9,$10,$11,$12,$13,$14,$15,$16,$1,$2,$17*%
G04 Aperture macros list end*
%TA.AperFunction,NonConductor*%
%ADD10C,0.200000*%
%TD*%
%TA.AperFunction,SMDPad,CuDef*%
%ADD11R,0.700000X0.700000*%
%TD*%
%TA.AperFunction,HeatsinkPad*%
%ADD12R,1.450000X1.450000*%
%TD*%
%TA.AperFunction,HeatsinkPad*%
%ADD13Outline5P,-0.725000X0.130500X-0.130500X0.725000X0.725000X0.725000X0.725000X-0.725000X-0.725000X-0.725000X0.000000*%
%TD*%
%TA.AperFunction,SMDPad,CuDef*%
%ADD14R,0.400000X0.800000*%
%TD*%
%TA.AperFunction,SMDPad,CuDef*%
%ADD15R,0.800000X0.400000*%
%TD*%
%TA.AperFunction,SMDPad,CuDef*%
%ADD16RoundRect,0.250000X-2.050000X-0.300000X2.050000X-0.300000X2.050000X0.300000X-2.050000X0.300000X0*%
%TD*%
%TA.AperFunction,SMDPad,CuDef*%
%ADD17RoundRect,0.250002X-4.449998X-5.149998X4.449998X-5.149998X4.449998X5.149998X-4.449998X5.149998X0*%
%TD*%
%TA.AperFunction,Conductor*%
%ADD18C,0.200000*%
%TD*%
G04 APERTURE END LIST*
D10*
X113000000Y-104500000D02*
X148000000Y-104500000D01*
X148000000Y-118500000D01*
X113000000Y-118500000D01*
X113000000Y-104500000D01*
D11*
%TO.P,U2,53,GND*%
%TO.N,GND*%
X133650000Y-105150000D03*
%TO.P,U2,52,GND*%
X133650000Y-115050000D03*
%TO.P,U2,51,GND*%
X145550000Y-115050000D03*
%TO.P,U2,50,GND*%
X145550000Y-105150000D03*
D12*
%TO.P,U2,49,GND*%
X141575000Y-112075000D03*
X141575000Y-110100000D03*
X141575000Y-108125000D03*
X139600000Y-112075000D03*
X139600000Y-110100000D03*
X139600000Y-108125000D03*
X137625000Y-112075000D03*
X137625000Y-110100000D03*
D13*
X137625000Y-108125000D03*
D14*
%TO.P,U2,48,GND*%
X134800000Y-105200000D03*
%TO.P,U2,47,GND*%
X135600000Y-105200000D03*
%TO.P,U2,46,GND*%
X136400000Y-105200000D03*
%TO.P,U2,45,GND*%
X137200000Y-105200000D03*
%TO.P,U2,44,GND*%
X138000000Y-105200000D03*
%TO.P,U2,43,GND*%
X138800000Y-105200000D03*
%TO.P,U2,42,GND*%
X139600000Y-105200000D03*
%TO.P,U2,41,GND*%
X140400000Y-105200000D03*
%TO.P,U2,40,GND*%
X141200000Y-105200000D03*
%TO.P,U2,39,GND*%
X142000000Y-105200000D03*
%TO.P,U2,38,GND*%
X142800000Y-105200000D03*
%TO.P,U2,37,GND*%
X143600000Y-105200000D03*
%TO.P,U2,36,GND*%
X144400000Y-105200000D03*
D15*
%TO.P,U2,35,NC*%
%TO.N,unconnected-(U2-NC-Pad35)*%
X145500000Y-106100000D03*
%TO.P,U2,34,NC*%
%TO.N,unconnected-(U2-NC-Pad34)*%
X145500000Y-106900000D03*
%TO.P,U2,33,NC*%
%TO.N,unconnected-(U2-NC-Pad33)*%
X145500000Y-107700000D03*
%TO.P,U2,32,NC*%
%TO.N,unconnected-(U2-NC-Pad32)*%
X145500000Y-108500000D03*
%TO.P,U2,31,TXD0*%
%TO.N,unconnected-(U2-TXD0-Pad31)*%
X145500000Y-109300000D03*
%TO.P,U2,30,RXD0*%
%TO.N,unconnected-(U2-RXD0-Pad30)*%
X145500000Y-110100000D03*
%TO.P,U2,29,IO23*%
%TO.N,Net-(U1-D2)*%
X145500000Y-110900000D03*
%TO.P,U2,28,IO22*%
%TO.N,Net-(U1-D1)*%
X145500000Y-111700000D03*
%TO.P,U2,27,IO21*%
%TO.N,unconnected-(U2-IO21-Pad27)*%
X145500000Y-112500000D03*
%TO.P,U2,26,IO20*%
%TO.N,unconnected-(U2-IO20-Pad26)*%
X145500000Y-113300000D03*
%TO.P,U2,25,IO19*%
%TO.N,unconnected-(U2-IO19-Pad25)*%
X145500000Y-114100000D03*
D14*
%TO.P,U2,24,IO18*%
%TO.N,unconnected-(U2-IO18-Pad24)*%
X144400000Y-115000000D03*
%TO.P,U2,23,IO9*%
%TO.N,Net-(U1-C2)*%
X143600000Y-115000000D03*
%TO.P,U2,22,IO8*%
%TO.N,Net-(U1-C1)*%
X142800000Y-115000000D03*
%TO.P,U2,21,NC*%
%TO.N,unconnected-(U2-NC-Pad21)*%
X142000000Y-115000000D03*
%TO.P,U2,20,IO15*%
%TO.N,unconnected-(U2-IO15-Pad20)*%
X141200000Y-115000000D03*
%TO.P,U2,19,IO14*%
%TO.N,unconnected-(U2-IO14-Pad19)*%
X140400000Y-115000000D03*
%TO.P,U2,18,IO13*%
%TO.N,unconnected-(U2-IO13-Pad18)*%
X139600000Y-115000000D03*
%TO.P,U2,17,IO12*%
%TO.N,unconnected-(U2-IO12-Pad17)*%
X138800000Y-115000000D03*
%TO.P,U2,16,IO7*%
%TO.N,Net-(U1-B2)*%
X138000000Y-115000000D03*
%TO.P,U2,15,IO6*%
%TO.N,Net-(U1-B1)*%
X137200000Y-115000000D03*
%TO.P,U2,14,GND*%
%TO.N,GND*%
X136400000Y-115000000D03*
%TO.P,U2,13,IO1*%
%TO.N,unconnected-(U2-IO1-Pad13)*%
X135600000Y-115000000D03*
%TO.P,U2,12,IO0*%
%TO.N,unconnected-(U2-IO0-Pad12)*%
X134800000Y-115000000D03*
D15*
%TO.P,U2,11,GND*%
%TO.N,GND*%
X133700000Y-114100000D03*
%TO.P,U2,10,IO5*%
%TO.N,Net-(U1-A2)*%
X133700000Y-113300000D03*
%TO.P,U2,9,IO4*%
%TO.N,Net-(U1-A1)*%
X133700000Y-112500000D03*
%TO.P,U2,8,EN*%
%TO.N,unconnected-(U2-EN-Pad8)*%
X133700000Y-111700000D03*
%TO.P,U2,7,NC*%
%TO.N,unconnected-(U2-NC-Pad7)*%
X133700000Y-110900000D03*
%TO.P,U2,6,IO3*%
%TO.N,unconnected-(U2-IO3-Pad6)*%
X133700000Y-110100000D03*
%TO.P,U2,5,IO2*%
%TO.N,unconnected-(U2-IO2-Pad5)*%
X133700000Y-109300000D03*
%TO.P,U2,4,NC*%
%TO.N,unconnected-(U2-NC-Pad4)*%
X133700000Y-108500000D03*
%TO.P,U2,3,3V3*%
%TO.N,+3.3V*%
X133700000Y-107700000D03*
%TO.P,U2,2,GND*%
%TO.N,GND*%
X133700000Y-106900000D03*
%TO.P,U2,1,GND*%
X133700000Y-106100000D03*
%TD*%
D16*
%TO.P,U4,1,VIN*%
%TO.N,+12V*%
X116450000Y-107650000D03*
%TO.P,U4,2,OUT*%
%TO.N,+3.3V*%
X116450000Y-109350000D03*
%TO.P,U4,3,GND*%
%TO.N,GND*%
X116450000Y-111050000D03*
D17*
X125600000Y-111050000D03*
D16*
%TO.P,U4,4,FB*%
%TO.N,unconnected-(U4-FB-Pad4)*%
X116450000Y-112750000D03*
%TO.P,U4,5,~{ON}/OFF*%
%TO.N,unconnected-(U4-~{ON}{slash}OFF-Pad5)*%
X116450000Y-114450000D03*
%TD*%
D18*
%TO.N,GND*%
X139600000Y-108125000D02*
X141575000Y-108125000D01*
X141575000Y-112075000D02*
X141575000Y-108125000D01*
X145550000Y-115050000D02*
X144899000Y-115701000D01*
X144899000Y-115701000D02*
X136699000Y-115701000D01*
X136699000Y-114299000D02*
X138923000Y-112075000D01*
X136699000Y-115701000D02*
X136699000Y-114299000D01*
X138923000Y-112075000D02*
X141575000Y-112075000D01*
X139600000Y-108125000D02*
X139600000Y-105200000D01*
X133650000Y-105150000D02*
X145550000Y-105150000D01*
X133700000Y-106900000D02*
X133700000Y-105200000D01*
X133700000Y-105200000D02*
X133650000Y-105150000D01*
%TO.N,+3.3V*%
X133700000Y-107700000D02*
X132636160Y-107700000D01*
X132636160Y-107700000D02*
X130285160Y-105349000D01*
X119051000Y-108185160D02*
X117886160Y-109350000D01*
X130285160Y-105349000D02*
X120914840Y-105349000D01*
X120914840Y-105349000D02*
X119051000Y-107212840D01*
X117886160Y-109350000D02*
X116450000Y-109350000D01*
X119051000Y-107212840D02*
X119051000Y-108185160D01*
%TO.N,GND*%
X136400000Y-115000000D02*
X136400000Y-113300000D01*
X136400000Y-113300000D02*
X137625000Y-112075000D01*
X136400000Y-115000000D02*
X136400000Y-114400000D01*
X136400000Y-114400000D02*
X136299000Y-114299000D01*
X136299000Y-114299000D02*
X134401000Y-114299000D01*
X134401000Y-114299000D02*
X133650000Y-115050000D01*
X133650000Y-115050000D02*
X129600000Y-115050000D01*
X129600000Y-115050000D02*
X125600000Y-111050000D01*
X125600000Y-111050000D02*
X128650000Y-114100000D01*
X128650000Y-114100000D02*
X133700000Y-114100000D01*
X116450000Y-111050000D02*
X125600000Y-111050000D01*
X137625000Y-108125000D02*
X137625000Y-110100000D01*
X137625000Y-110100000D02*
X141575000Y-110100000D01*
%TD*%
M02*
