%TF.GenerationSoftware,KiCad,Pcbnew,9.0.1*%
%TF.CreationDate,2025-04-20T22:13:02+08:00*%
%TF.ProjectId,PCB,5043422e-6b69-4636-9164-5f7063625858,rev?*%
%TF.SameCoordinates,Original*%
%TF.FileFunction,Other,Comment*%
%FSLAX46Y46*%
G04 Gerber Fmt 4.6, Leading zero omitted, Abs format (unit mm)*
G04 Created by KiCad (PCBNEW 9.0.1) date 2025-04-20 22:13:02*
%MOMM*%
%LPD*%
G01*
G04 APERTURE LIST*
%ADD10C,0.150000*%
G04 APERTURE END LIST*
D10*
X136838095Y-102594104D02*
X137314285Y-102594104D01*
X136742857Y-102879819D02*
X137076190Y-101879819D01*
X137076190Y-101879819D02*
X137409523Y-102879819D01*
X137742857Y-102213152D02*
X137742857Y-102879819D01*
X137742857Y-102308390D02*
X137790476Y-102260771D01*
X137790476Y-102260771D02*
X137885714Y-102213152D01*
X137885714Y-102213152D02*
X138028571Y-102213152D01*
X138028571Y-102213152D02*
X138123809Y-102260771D01*
X138123809Y-102260771D02*
X138171428Y-102356009D01*
X138171428Y-102356009D02*
X138171428Y-102879819D01*
X138504762Y-102213152D02*
X138885714Y-102213152D01*
X138647619Y-101879819D02*
X138647619Y-102736961D01*
X138647619Y-102736961D02*
X138695238Y-102832200D01*
X138695238Y-102832200D02*
X138790476Y-102879819D01*
X138790476Y-102879819D02*
X138885714Y-102879819D01*
X139600000Y-102832200D02*
X139504762Y-102879819D01*
X139504762Y-102879819D02*
X139314286Y-102879819D01*
X139314286Y-102879819D02*
X139219048Y-102832200D01*
X139219048Y-102832200D02*
X139171429Y-102736961D01*
X139171429Y-102736961D02*
X139171429Y-102356009D01*
X139171429Y-102356009D02*
X139219048Y-102260771D01*
X139219048Y-102260771D02*
X139314286Y-102213152D01*
X139314286Y-102213152D02*
X139504762Y-102213152D01*
X139504762Y-102213152D02*
X139600000Y-102260771D01*
X139600000Y-102260771D02*
X139647619Y-102356009D01*
X139647619Y-102356009D02*
X139647619Y-102451247D01*
X139647619Y-102451247D02*
X139171429Y-102546485D01*
X140076191Y-102213152D02*
X140076191Y-102879819D01*
X140076191Y-102308390D02*
X140123810Y-102260771D01*
X140123810Y-102260771D02*
X140219048Y-102213152D01*
X140219048Y-102213152D02*
X140361905Y-102213152D01*
X140361905Y-102213152D02*
X140457143Y-102260771D01*
X140457143Y-102260771D02*
X140504762Y-102356009D01*
X140504762Y-102356009D02*
X140504762Y-102879819D01*
X140980953Y-102213152D02*
X140980953Y-102879819D01*
X140980953Y-102308390D02*
X141028572Y-102260771D01*
X141028572Y-102260771D02*
X141123810Y-102213152D01*
X141123810Y-102213152D02*
X141266667Y-102213152D01*
X141266667Y-102213152D02*
X141361905Y-102260771D01*
X141361905Y-102260771D02*
X141409524Y-102356009D01*
X141409524Y-102356009D02*
X141409524Y-102879819D01*
X142314286Y-102879819D02*
X142314286Y-102356009D01*
X142314286Y-102356009D02*
X142266667Y-102260771D01*
X142266667Y-102260771D02*
X142171429Y-102213152D01*
X142171429Y-102213152D02*
X141980953Y-102213152D01*
X141980953Y-102213152D02*
X141885715Y-102260771D01*
X142314286Y-102832200D02*
X142219048Y-102879819D01*
X142219048Y-102879819D02*
X141980953Y-102879819D01*
X141980953Y-102879819D02*
X141885715Y-102832200D01*
X141885715Y-102832200D02*
X141838096Y-102736961D01*
X141838096Y-102736961D02*
X141838096Y-102641723D01*
X141838096Y-102641723D02*
X141885715Y-102546485D01*
X141885715Y-102546485D02*
X141980953Y-102498866D01*
X141980953Y-102498866D02*
X142219048Y-102498866D01*
X142219048Y-102498866D02*
X142314286Y-102451247D01*
X134828094Y-95194819D02*
X134828094Y-94194819D01*
X135399522Y-95194819D02*
X134970951Y-94623390D01*
X135399522Y-94194819D02*
X134828094Y-94766247D01*
X136209046Y-95147200D02*
X136113808Y-95194819D01*
X136113808Y-95194819D02*
X135923332Y-95194819D01*
X135923332Y-95194819D02*
X135828094Y-95147200D01*
X135828094Y-95147200D02*
X135780475Y-95051961D01*
X135780475Y-95051961D02*
X135780475Y-94671009D01*
X135780475Y-94671009D02*
X135828094Y-94575771D01*
X135828094Y-94575771D02*
X135923332Y-94528152D01*
X135923332Y-94528152D02*
X136113808Y-94528152D01*
X136113808Y-94528152D02*
X136209046Y-94575771D01*
X136209046Y-94575771D02*
X136256665Y-94671009D01*
X136256665Y-94671009D02*
X136256665Y-94766247D01*
X136256665Y-94766247D02*
X135780475Y-94861485D01*
X137066189Y-95147200D02*
X136970951Y-95194819D01*
X136970951Y-95194819D02*
X136780475Y-95194819D01*
X136780475Y-95194819D02*
X136685237Y-95147200D01*
X136685237Y-95147200D02*
X136637618Y-95051961D01*
X136637618Y-95051961D02*
X136637618Y-94671009D01*
X136637618Y-94671009D02*
X136685237Y-94575771D01*
X136685237Y-94575771D02*
X136780475Y-94528152D01*
X136780475Y-94528152D02*
X136970951Y-94528152D01*
X136970951Y-94528152D02*
X137066189Y-94575771D01*
X137066189Y-94575771D02*
X137113808Y-94671009D01*
X137113808Y-94671009D02*
X137113808Y-94766247D01*
X137113808Y-94766247D02*
X136637618Y-94861485D01*
X137542380Y-94528152D02*
X137542380Y-95528152D01*
X137542380Y-94575771D02*
X137637618Y-94528152D01*
X137637618Y-94528152D02*
X137828094Y-94528152D01*
X137828094Y-94528152D02*
X137923332Y-94575771D01*
X137923332Y-94575771D02*
X137970951Y-94623390D01*
X137970951Y-94623390D02*
X138018570Y-94718628D01*
X138018570Y-94718628D02*
X138018570Y-95004342D01*
X138018570Y-95004342D02*
X137970951Y-95099580D01*
X137970951Y-95099580D02*
X137923332Y-95147200D01*
X137923332Y-95147200D02*
X137828094Y-95194819D01*
X137828094Y-95194819D02*
X137637618Y-95194819D01*
X137637618Y-95194819D02*
X137542380Y-95147200D01*
X138589999Y-95194819D02*
X138494761Y-95147200D01*
X138494761Y-95147200D02*
X138447142Y-95099580D01*
X138447142Y-95099580D02*
X138399523Y-95004342D01*
X138399523Y-95004342D02*
X138399523Y-94718628D01*
X138399523Y-94718628D02*
X138447142Y-94623390D01*
X138447142Y-94623390D02*
X138494761Y-94575771D01*
X138494761Y-94575771D02*
X138589999Y-94528152D01*
X138589999Y-94528152D02*
X138732856Y-94528152D01*
X138732856Y-94528152D02*
X138828094Y-94575771D01*
X138828094Y-94575771D02*
X138875713Y-94623390D01*
X138875713Y-94623390D02*
X138923332Y-94718628D01*
X138923332Y-94718628D02*
X138923332Y-95004342D01*
X138923332Y-95004342D02*
X138875713Y-95099580D01*
X138875713Y-95099580D02*
X138828094Y-95147200D01*
X138828094Y-95147200D02*
X138732856Y-95194819D01*
X138732856Y-95194819D02*
X138589999Y-95194819D01*
X139780475Y-94528152D02*
X139780475Y-95194819D01*
X139351904Y-94528152D02*
X139351904Y-95051961D01*
X139351904Y-95051961D02*
X139399523Y-95147200D01*
X139399523Y-95147200D02*
X139494761Y-95194819D01*
X139494761Y-95194819D02*
X139637618Y-95194819D01*
X139637618Y-95194819D02*
X139732856Y-95147200D01*
X139732856Y-95147200D02*
X139780475Y-95099580D01*
X140113809Y-94528152D02*
X140494761Y-94528152D01*
X140256666Y-94194819D02*
X140256666Y-95051961D01*
X140256666Y-95051961D02*
X140304285Y-95147200D01*
X140304285Y-95147200D02*
X140399523Y-95194819D01*
X140399523Y-95194819D02*
X140494761Y-95194819D01*
X141542381Y-94909104D02*
X142018571Y-94909104D01*
X141447143Y-95194819D02*
X141780476Y-94194819D01*
X141780476Y-94194819D02*
X142113809Y-95194819D01*
X142447143Y-95194819D02*
X142447143Y-94528152D01*
X142447143Y-94718628D02*
X142494762Y-94623390D01*
X142494762Y-94623390D02*
X142542381Y-94575771D01*
X142542381Y-94575771D02*
X142637619Y-94528152D01*
X142637619Y-94528152D02*
X142732857Y-94528152D01*
X143447143Y-95147200D02*
X143351905Y-95194819D01*
X143351905Y-95194819D02*
X143161429Y-95194819D01*
X143161429Y-95194819D02*
X143066191Y-95147200D01*
X143066191Y-95147200D02*
X143018572Y-95051961D01*
X143018572Y-95051961D02*
X143018572Y-94671009D01*
X143018572Y-94671009D02*
X143066191Y-94575771D01*
X143066191Y-94575771D02*
X143161429Y-94528152D01*
X143161429Y-94528152D02*
X143351905Y-94528152D01*
X143351905Y-94528152D02*
X143447143Y-94575771D01*
X143447143Y-94575771D02*
X143494762Y-94671009D01*
X143494762Y-94671009D02*
X143494762Y-94766247D01*
X143494762Y-94766247D02*
X143018572Y-94861485D01*
X144351905Y-95194819D02*
X144351905Y-94671009D01*
X144351905Y-94671009D02*
X144304286Y-94575771D01*
X144304286Y-94575771D02*
X144209048Y-94528152D01*
X144209048Y-94528152D02*
X144018572Y-94528152D01*
X144018572Y-94528152D02*
X143923334Y-94575771D01*
X144351905Y-95147200D02*
X144256667Y-95194819D01*
X144256667Y-95194819D02*
X144018572Y-95194819D01*
X144018572Y-95194819D02*
X143923334Y-95147200D01*
X143923334Y-95147200D02*
X143875715Y-95051961D01*
X143875715Y-95051961D02*
X143875715Y-94956723D01*
X143875715Y-94956723D02*
X143923334Y-94861485D01*
X143923334Y-94861485D02*
X144018572Y-94813866D01*
X144018572Y-94813866D02*
X144256667Y-94813866D01*
X144256667Y-94813866D02*
X144351905Y-94766247D01*
M02*
