%TF.GenerationSoftware,KiCad,Pcbnew,9.0.1*%
%TF.CreationDate,2025-04-20T22:13:02+08:00*%
%TF.ProjectId,PCB,5043422e-6b69-4636-9164-5f7063625858,rev?*%
%TF.SameCoordinates,Original*%
%TF.FileFunction,AssemblyDrawing,Top*%
%FSLAX46Y46*%
G04 Gerber Fmt 4.6, Leading zero omitted, Abs format (unit mm)*
G04 Created by KiCad (PCBNEW 9.0.1) date 2025-04-20 22:13:02*
%MOMM*%
%LPD*%
G01*
G04 APERTURE LIST*
%ADD10C,0.150000*%
%ADD11C,0.100000*%
G04 APERTURE END LIST*
D10*
X132576191Y-116931009D02*
X132909524Y-116931009D01*
X133052381Y-117454819D02*
X132576191Y-117454819D01*
X132576191Y-117454819D02*
X132576191Y-116454819D01*
X132576191Y-116454819D02*
X133052381Y-116454819D01*
X133433334Y-117407200D02*
X133576191Y-117454819D01*
X133576191Y-117454819D02*
X133814286Y-117454819D01*
X133814286Y-117454819D02*
X133909524Y-117407200D01*
X133909524Y-117407200D02*
X133957143Y-117359580D01*
X133957143Y-117359580D02*
X134004762Y-117264342D01*
X134004762Y-117264342D02*
X134004762Y-117169104D01*
X134004762Y-117169104D02*
X133957143Y-117073866D01*
X133957143Y-117073866D02*
X133909524Y-117026247D01*
X133909524Y-117026247D02*
X133814286Y-116978628D01*
X133814286Y-116978628D02*
X133623810Y-116931009D01*
X133623810Y-116931009D02*
X133528572Y-116883390D01*
X133528572Y-116883390D02*
X133480953Y-116835771D01*
X133480953Y-116835771D02*
X133433334Y-116740533D01*
X133433334Y-116740533D02*
X133433334Y-116645295D01*
X133433334Y-116645295D02*
X133480953Y-116550057D01*
X133480953Y-116550057D02*
X133528572Y-116502438D01*
X133528572Y-116502438D02*
X133623810Y-116454819D01*
X133623810Y-116454819D02*
X133861905Y-116454819D01*
X133861905Y-116454819D02*
X134004762Y-116502438D01*
X134433334Y-117454819D02*
X134433334Y-116454819D01*
X134433334Y-116454819D02*
X134814286Y-116454819D01*
X134814286Y-116454819D02*
X134909524Y-116502438D01*
X134909524Y-116502438D02*
X134957143Y-116550057D01*
X134957143Y-116550057D02*
X135004762Y-116645295D01*
X135004762Y-116645295D02*
X135004762Y-116788152D01*
X135004762Y-116788152D02*
X134957143Y-116883390D01*
X134957143Y-116883390D02*
X134909524Y-116931009D01*
X134909524Y-116931009D02*
X134814286Y-116978628D01*
X134814286Y-116978628D02*
X134433334Y-116978628D01*
X135338096Y-116454819D02*
X135957143Y-116454819D01*
X135957143Y-116454819D02*
X135623810Y-116835771D01*
X135623810Y-116835771D02*
X135766667Y-116835771D01*
X135766667Y-116835771D02*
X135861905Y-116883390D01*
X135861905Y-116883390D02*
X135909524Y-116931009D01*
X135909524Y-116931009D02*
X135957143Y-117026247D01*
X135957143Y-117026247D02*
X135957143Y-117264342D01*
X135957143Y-117264342D02*
X135909524Y-117359580D01*
X135909524Y-117359580D02*
X135861905Y-117407200D01*
X135861905Y-117407200D02*
X135766667Y-117454819D01*
X135766667Y-117454819D02*
X135480953Y-117454819D01*
X135480953Y-117454819D02*
X135385715Y-117407200D01*
X135385715Y-117407200D02*
X135338096Y-117359580D01*
X136338096Y-116550057D02*
X136385715Y-116502438D01*
X136385715Y-116502438D02*
X136480953Y-116454819D01*
X136480953Y-116454819D02*
X136719048Y-116454819D01*
X136719048Y-116454819D02*
X136814286Y-116502438D01*
X136814286Y-116502438D02*
X136861905Y-116550057D01*
X136861905Y-116550057D02*
X136909524Y-116645295D01*
X136909524Y-116645295D02*
X136909524Y-116740533D01*
X136909524Y-116740533D02*
X136861905Y-116883390D01*
X136861905Y-116883390D02*
X136290477Y-117454819D01*
X136290477Y-117454819D02*
X136909524Y-117454819D01*
X137338096Y-117073866D02*
X138100001Y-117073866D01*
X139147619Y-117359580D02*
X139100000Y-117407200D01*
X139100000Y-117407200D02*
X138957143Y-117454819D01*
X138957143Y-117454819D02*
X138861905Y-117454819D01*
X138861905Y-117454819D02*
X138719048Y-117407200D01*
X138719048Y-117407200D02*
X138623810Y-117311961D01*
X138623810Y-117311961D02*
X138576191Y-117216723D01*
X138576191Y-117216723D02*
X138528572Y-117026247D01*
X138528572Y-117026247D02*
X138528572Y-116883390D01*
X138528572Y-116883390D02*
X138576191Y-116692914D01*
X138576191Y-116692914D02*
X138623810Y-116597676D01*
X138623810Y-116597676D02*
X138719048Y-116502438D01*
X138719048Y-116502438D02*
X138861905Y-116454819D01*
X138861905Y-116454819D02*
X138957143Y-116454819D01*
X138957143Y-116454819D02*
X139100000Y-116502438D01*
X139100000Y-116502438D02*
X139147619Y-116550057D01*
X140004762Y-116454819D02*
X139814286Y-116454819D01*
X139814286Y-116454819D02*
X139719048Y-116502438D01*
X139719048Y-116502438D02*
X139671429Y-116550057D01*
X139671429Y-116550057D02*
X139576191Y-116692914D01*
X139576191Y-116692914D02*
X139528572Y-116883390D01*
X139528572Y-116883390D02*
X139528572Y-117264342D01*
X139528572Y-117264342D02*
X139576191Y-117359580D01*
X139576191Y-117359580D02*
X139623810Y-117407200D01*
X139623810Y-117407200D02*
X139719048Y-117454819D01*
X139719048Y-117454819D02*
X139909524Y-117454819D01*
X139909524Y-117454819D02*
X140004762Y-117407200D01*
X140004762Y-117407200D02*
X140052381Y-117359580D01*
X140052381Y-117359580D02*
X140100000Y-117264342D01*
X140100000Y-117264342D02*
X140100000Y-117026247D01*
X140100000Y-117026247D02*
X140052381Y-116931009D01*
X140052381Y-116931009D02*
X140004762Y-116883390D01*
X140004762Y-116883390D02*
X139909524Y-116835771D01*
X139909524Y-116835771D02*
X139719048Y-116835771D01*
X139719048Y-116835771D02*
X139623810Y-116883390D01*
X139623810Y-116883390D02*
X139576191Y-116931009D01*
X139576191Y-116931009D02*
X139528572Y-117026247D01*
X140528572Y-117073866D02*
X141290477Y-117073866D01*
X141766667Y-117454819D02*
X141766667Y-116454819D01*
X141766667Y-116454819D02*
X142100000Y-117169104D01*
X142100000Y-117169104D02*
X142433333Y-116454819D01*
X142433333Y-116454819D02*
X142433333Y-117454819D01*
X142909524Y-117454819D02*
X142909524Y-116454819D01*
X143385714Y-117454819D02*
X143385714Y-116454819D01*
X143385714Y-116454819D02*
X143957142Y-117454819D01*
X143957142Y-117454819D02*
X143957142Y-116454819D01*
X144433333Y-117454819D02*
X144433333Y-116454819D01*
X144909523Y-117073866D02*
X145671428Y-117073866D01*
X146671427Y-117454819D02*
X146099999Y-117454819D01*
X146385713Y-117454819D02*
X146385713Y-116454819D01*
X146385713Y-116454819D02*
X146290475Y-116597676D01*
X146290475Y-116597676D02*
X146195237Y-116692914D01*
X146195237Y-116692914D02*
X146099999Y-116740533D01*
X138838095Y-109554819D02*
X138838095Y-110364342D01*
X138838095Y-110364342D02*
X138885714Y-110459580D01*
X138885714Y-110459580D02*
X138933333Y-110507200D01*
X138933333Y-110507200D02*
X139028571Y-110554819D01*
X139028571Y-110554819D02*
X139219047Y-110554819D01*
X139219047Y-110554819D02*
X139314285Y-110507200D01*
X139314285Y-110507200D02*
X139361904Y-110459580D01*
X139361904Y-110459580D02*
X139409523Y-110364342D01*
X139409523Y-110364342D02*
X139409523Y-109554819D01*
X139838095Y-109650057D02*
X139885714Y-109602438D01*
X139885714Y-109602438D02*
X139980952Y-109554819D01*
X139980952Y-109554819D02*
X140219047Y-109554819D01*
X140219047Y-109554819D02*
X140314285Y-109602438D01*
X140314285Y-109602438D02*
X140361904Y-109650057D01*
X140361904Y-109650057D02*
X140409523Y-109745295D01*
X140409523Y-109745295D02*
X140409523Y-109840533D01*
X140409523Y-109840533D02*
X140361904Y-109983390D01*
X140361904Y-109983390D02*
X139790476Y-110554819D01*
X139790476Y-110554819D02*
X140409523Y-110554819D01*
X119647619Y-118154819D02*
X119171429Y-118154819D01*
X119171429Y-118154819D02*
X119171429Y-117154819D01*
X119980953Y-118154819D02*
X119980953Y-117154819D01*
X119980953Y-117154819D02*
X120314286Y-117869104D01*
X120314286Y-117869104D02*
X120647619Y-117154819D01*
X120647619Y-117154819D02*
X120647619Y-118154819D01*
X121076191Y-117250057D02*
X121123810Y-117202438D01*
X121123810Y-117202438D02*
X121219048Y-117154819D01*
X121219048Y-117154819D02*
X121457143Y-117154819D01*
X121457143Y-117154819D02*
X121552381Y-117202438D01*
X121552381Y-117202438D02*
X121600000Y-117250057D01*
X121600000Y-117250057D02*
X121647619Y-117345295D01*
X121647619Y-117345295D02*
X121647619Y-117440533D01*
X121647619Y-117440533D02*
X121600000Y-117583390D01*
X121600000Y-117583390D02*
X121028572Y-118154819D01*
X121028572Y-118154819D02*
X121647619Y-118154819D01*
X122552381Y-117154819D02*
X122076191Y-117154819D01*
X122076191Y-117154819D02*
X122028572Y-117631009D01*
X122028572Y-117631009D02*
X122076191Y-117583390D01*
X122076191Y-117583390D02*
X122171429Y-117535771D01*
X122171429Y-117535771D02*
X122409524Y-117535771D01*
X122409524Y-117535771D02*
X122504762Y-117583390D01*
X122504762Y-117583390D02*
X122552381Y-117631009D01*
X122552381Y-117631009D02*
X122600000Y-117726247D01*
X122600000Y-117726247D02*
X122600000Y-117964342D01*
X122600000Y-117964342D02*
X122552381Y-118059580D01*
X122552381Y-118059580D02*
X122504762Y-118107200D01*
X122504762Y-118107200D02*
X122409524Y-118154819D01*
X122409524Y-118154819D02*
X122171429Y-118154819D01*
X122171429Y-118154819D02*
X122076191Y-118107200D01*
X122076191Y-118107200D02*
X122028572Y-118059580D01*
X123076191Y-118154819D02*
X123266667Y-118154819D01*
X123266667Y-118154819D02*
X123361905Y-118107200D01*
X123361905Y-118107200D02*
X123409524Y-118059580D01*
X123409524Y-118059580D02*
X123504762Y-117916723D01*
X123504762Y-117916723D02*
X123552381Y-117726247D01*
X123552381Y-117726247D02*
X123552381Y-117345295D01*
X123552381Y-117345295D02*
X123504762Y-117250057D01*
X123504762Y-117250057D02*
X123457143Y-117202438D01*
X123457143Y-117202438D02*
X123361905Y-117154819D01*
X123361905Y-117154819D02*
X123171429Y-117154819D01*
X123171429Y-117154819D02*
X123076191Y-117202438D01*
X123076191Y-117202438D02*
X123028572Y-117250057D01*
X123028572Y-117250057D02*
X122980953Y-117345295D01*
X122980953Y-117345295D02*
X122980953Y-117583390D01*
X122980953Y-117583390D02*
X123028572Y-117678628D01*
X123028572Y-117678628D02*
X123076191Y-117726247D01*
X123076191Y-117726247D02*
X123171429Y-117773866D01*
X123171429Y-117773866D02*
X123361905Y-117773866D01*
X123361905Y-117773866D02*
X123457143Y-117726247D01*
X123457143Y-117726247D02*
X123504762Y-117678628D01*
X123504762Y-117678628D02*
X123552381Y-117583390D01*
X124409524Y-117154819D02*
X124219048Y-117154819D01*
X124219048Y-117154819D02*
X124123810Y-117202438D01*
X124123810Y-117202438D02*
X124076191Y-117250057D01*
X124076191Y-117250057D02*
X123980953Y-117392914D01*
X123980953Y-117392914D02*
X123933334Y-117583390D01*
X123933334Y-117583390D02*
X123933334Y-117964342D01*
X123933334Y-117964342D02*
X123980953Y-118059580D01*
X123980953Y-118059580D02*
X124028572Y-118107200D01*
X124028572Y-118107200D02*
X124123810Y-118154819D01*
X124123810Y-118154819D02*
X124314286Y-118154819D01*
X124314286Y-118154819D02*
X124409524Y-118107200D01*
X124409524Y-118107200D02*
X124457143Y-118059580D01*
X124457143Y-118059580D02*
X124504762Y-117964342D01*
X124504762Y-117964342D02*
X124504762Y-117726247D01*
X124504762Y-117726247D02*
X124457143Y-117631009D01*
X124457143Y-117631009D02*
X124409524Y-117583390D01*
X124409524Y-117583390D02*
X124314286Y-117535771D01*
X124314286Y-117535771D02*
X124123810Y-117535771D01*
X124123810Y-117535771D02*
X124028572Y-117583390D01*
X124028572Y-117583390D02*
X123980953Y-117631009D01*
X123980953Y-117631009D02*
X123933334Y-117726247D01*
X124885715Y-118107200D02*
X125028572Y-118154819D01*
X125028572Y-118154819D02*
X125266667Y-118154819D01*
X125266667Y-118154819D02*
X125361905Y-118107200D01*
X125361905Y-118107200D02*
X125409524Y-118059580D01*
X125409524Y-118059580D02*
X125457143Y-117964342D01*
X125457143Y-117964342D02*
X125457143Y-117869104D01*
X125457143Y-117869104D02*
X125409524Y-117773866D01*
X125409524Y-117773866D02*
X125361905Y-117726247D01*
X125361905Y-117726247D02*
X125266667Y-117678628D01*
X125266667Y-117678628D02*
X125076191Y-117631009D01*
X125076191Y-117631009D02*
X124980953Y-117583390D01*
X124980953Y-117583390D02*
X124933334Y-117535771D01*
X124933334Y-117535771D02*
X124885715Y-117440533D01*
X124885715Y-117440533D02*
X124885715Y-117345295D01*
X124885715Y-117345295D02*
X124933334Y-117250057D01*
X124933334Y-117250057D02*
X124980953Y-117202438D01*
X124980953Y-117202438D02*
X125076191Y-117154819D01*
X125076191Y-117154819D02*
X125314286Y-117154819D01*
X125314286Y-117154819D02*
X125457143Y-117202438D01*
X125885715Y-117773866D02*
X126647620Y-117773866D01*
X127028572Y-117154819D02*
X127647619Y-117154819D01*
X127647619Y-117154819D02*
X127314286Y-117535771D01*
X127314286Y-117535771D02*
X127457143Y-117535771D01*
X127457143Y-117535771D02*
X127552381Y-117583390D01*
X127552381Y-117583390D02*
X127600000Y-117631009D01*
X127600000Y-117631009D02*
X127647619Y-117726247D01*
X127647619Y-117726247D02*
X127647619Y-117964342D01*
X127647619Y-117964342D02*
X127600000Y-118059580D01*
X127600000Y-118059580D02*
X127552381Y-118107200D01*
X127552381Y-118107200D02*
X127457143Y-118154819D01*
X127457143Y-118154819D02*
X127171429Y-118154819D01*
X127171429Y-118154819D02*
X127076191Y-118107200D01*
X127076191Y-118107200D02*
X127028572Y-118059580D01*
X128076191Y-118059580D02*
X128123810Y-118107200D01*
X128123810Y-118107200D02*
X128076191Y-118154819D01*
X128076191Y-118154819D02*
X128028572Y-118107200D01*
X128028572Y-118107200D02*
X128076191Y-118059580D01*
X128076191Y-118059580D02*
X128076191Y-118154819D01*
X128457143Y-117154819D02*
X129076190Y-117154819D01*
X129076190Y-117154819D02*
X128742857Y-117535771D01*
X128742857Y-117535771D02*
X128885714Y-117535771D01*
X128885714Y-117535771D02*
X128980952Y-117583390D01*
X128980952Y-117583390D02*
X129028571Y-117631009D01*
X129028571Y-117631009D02*
X129076190Y-117726247D01*
X129076190Y-117726247D02*
X129076190Y-117964342D01*
X129076190Y-117964342D02*
X129028571Y-118059580D01*
X129028571Y-118059580D02*
X128980952Y-118107200D01*
X128980952Y-118107200D02*
X128885714Y-118154819D01*
X128885714Y-118154819D02*
X128600000Y-118154819D01*
X128600000Y-118154819D02*
X128504762Y-118107200D01*
X128504762Y-118107200D02*
X128457143Y-118059580D01*
X123338095Y-110504819D02*
X123338095Y-111314342D01*
X123338095Y-111314342D02*
X123385714Y-111409580D01*
X123385714Y-111409580D02*
X123433333Y-111457200D01*
X123433333Y-111457200D02*
X123528571Y-111504819D01*
X123528571Y-111504819D02*
X123719047Y-111504819D01*
X123719047Y-111504819D02*
X123814285Y-111457200D01*
X123814285Y-111457200D02*
X123861904Y-111409580D01*
X123861904Y-111409580D02*
X123909523Y-111314342D01*
X123909523Y-111314342D02*
X123909523Y-110504819D01*
X124814285Y-110838152D02*
X124814285Y-111504819D01*
X124576190Y-110457200D02*
X124338095Y-111171485D01*
X124338095Y-111171485D02*
X124957142Y-111171485D01*
D11*
%TO.C,U2*%
X146200000Y-115700000D02*
X134000000Y-115700000D01*
X146200000Y-99100000D02*
X146200000Y-115700000D01*
X134000000Y-115700000D02*
X133000000Y-114700000D01*
X133000000Y-114700000D02*
X133000000Y-99100000D01*
X133000000Y-104500000D02*
X146200000Y-104500000D01*
X133000000Y-99100000D02*
X146200000Y-99100000D01*
%TO.C,U4*%
X114775000Y-107250000D02*
X114775000Y-108050000D01*
X114775000Y-108050000D02*
X119475000Y-108050000D01*
X114775000Y-108950000D02*
X114775000Y-109750000D01*
X114775000Y-109750000D02*
X119475000Y-109750000D01*
X114775000Y-110650000D02*
X114775000Y-111450000D01*
X114775000Y-111450000D02*
X119475000Y-111450000D01*
X114775000Y-112350000D02*
X114775000Y-113150000D01*
X114775000Y-113150000D02*
X119475000Y-113150000D01*
X114775000Y-114050000D02*
X114775000Y-114850000D01*
X114775000Y-114850000D02*
X119475000Y-114850000D01*
X119475000Y-107250000D02*
X114775000Y-107250000D01*
X119475000Y-108950000D02*
X114775000Y-108950000D01*
X119475000Y-110650000D02*
X114775000Y-110650000D01*
X119475000Y-112350000D02*
X114775000Y-112350000D01*
X119475000Y-114050000D02*
X114775000Y-114050000D01*
X128725000Y-106050000D02*
X129725000Y-106050000D01*
X129725000Y-106050000D02*
X129725000Y-116050000D01*
X129725000Y-116050000D02*
X128725000Y-116050000D01*
X128725000Y-116050000D02*
X119475000Y-116050000D01*
X119475000Y-107050000D01*
X120475000Y-106050000D01*
X128725000Y-106050000D01*
X128725000Y-116050000D01*
%TD*%
M02*
